<svg width="21" height="33" viewBox="0 0 21 33" fill="none" xmlns="http://www.w3.org/2000/svg">
<path fill-rule="evenodd" clip-rule="evenodd" d="M6.17647 1.19538H14.8235C15.3352 1.19538 15.75 1.55286 15.75 1.99384V8.38155H12.9706V7.31693C12.9706 6.72896 12.4175 6.25231 11.7353 6.25231H9.26471C8.58247 6.25231 8.02941 6.72896 8.02941 7.31693V8.38155H5.25V1.99384C5.25 1.55286 5.6648 1.19538 6.17647 1.19538ZM12.0441 7.31693V8.38155H8.95588V7.31693C8.95588 7.16994 9.09415 7.05078 9.26471 7.05078H11.7353C11.9059 7.05078 12.0441 7.16994 12.0441 7.31693ZM4.32353 8.38155V1.99384C4.32353 1.11188 5.15312 0.396912 6.17647 0.396912H14.8235C15.8469 0.396912 16.6765 1.11188 16.6765 1.99384V8.38155H18.2206C19.7556 8.38155 21 9.454 21 10.7769V27.2785C21 28.6015 19.7556 29.6739 18.2206 29.6739H2.77941C1.24439 29.6739 0 28.6015 0 27.2785V10.7769C0 9.454 1.24439 8.38155 2.77941 8.38155H4.32353ZM6.17647 13.1723C5.83535 13.1723 5.55882 13.4106 5.55882 13.7046V24.8831C5.55882 25.1771 5.83535 25.4154 6.17647 25.4154C6.51759 25.4154 6.79412 25.1771 6.79412 24.8831V13.7046C6.79412 13.4106 6.51759 13.1723 6.17647 13.1723ZM10.5 13.1723C10.1589 13.1723 9.88235 13.4106 9.88235 13.7046V24.8831C9.88235 25.1771 10.1589 25.4154 10.5 25.4154C10.8411 25.4154 11.1176 25.1771 11.1176 24.8831V13.7046C11.1176 13.4106 10.8411 13.1723 10.5 13.1723ZM14.2059 13.7046C14.2059 13.4106 14.4824 13.1723 14.8235 13.1723C15.1647 13.1723 15.4412 13.4106 15.4412 13.7046V24.8831C15.4412 25.1771 15.1647 25.4154 14.8235 25.4154C14.4824 25.4154 14.2059 25.1771 14.2059 24.8831V13.7046Z" fill="#FF7B29"/>
<path d="M2.93445 30.7384H6.64033V31.5368C6.64033 31.9778 6.22554 32.3353 5.71386 32.3353H3.86092C3.34924 32.3353 2.93445 31.9778 2.93445 31.5368V30.7384Z" fill="#FF7B29"/>
<path d="M14.3592 30.7384H18.0651V31.5368C18.0651 31.9778 17.6503 32.3353 17.1386 32.3353H15.2857C14.774 32.3353 14.3592 31.9778 14.3592 31.5368V30.7384Z" fill="#FF7B29"/>
</svg>
