<svg width="25" height="33" viewBox="0 0 25 33" fill="none" xmlns="http://www.w3.org/2000/svg">
<path fill-rule="evenodd" clip-rule="evenodd" d="M21.782 0.864504C21.85 1.30669 21.546 1.72017 21.1031 1.78804L2.21273 4.68249C2.0955 4.70045 1.98887 4.74698 1.8995 4.81433C1.96107 4.80888 2.02341 4.80609 2.08641 4.80609H22.0232C23.1755 4.80609 24.1096 5.73865 24.1096 6.88902V30.0327C24.1096 31.183 23.1755 32.1156 22.0232 32.1156H2.08641C0.934116 32.1156 0 31.183 0 30.0327V8.50907V6.88902V5.36876C0 4.22614 0.835267 3.25452 1.96655 3.08118L20.8569 0.186735C21.2998 0.118868 21.714 0.422315 21.782 0.864504ZM6.91412 19.115C7.01597 19.115 7.09929 19.1548 7.09929 19.2041C7.09929 19.2526 7.01619 19.293 6.91412 19.293C6.81247 19.293 6.68057 19.2528 6.62091 19.2041C6.56103 19.1548 6.44319 19.115 6.35924 19.115C6.27528 19.115 6.25205 19.0571 6.30831 18.9873C6.36435 18.9174 6.48219 18.9174 6.56998 18.9873C6.65756 19.0573 6.81247 19.115 6.91412 19.115ZM7.74966 19.3822C7.68637 19.3334 7.6233 19.2588 7.60923 19.2169L7.48181 19.293L7.35395 19.3694C7.21374 19.4302 6.98403 19.5789 6.84361 19.7004H7.09867H7.25188H7.74944C7.81252 19.7004 7.86408 19.6491 7.86408 19.5862C7.8643 19.523 7.81273 19.4313 7.74966 19.3822ZM10.951 10.4102C10.9489 10.4101 10.946 10.4098 10.9423 10.4094C10.9301 10.4082 10.9097 10.4063 10.8854 10.4053C10.8976 10.4004 10.9106 10.3991 10.9263 10.403L10.9286 10.4035C10.9467 10.4079 10.9544 10.4098 10.9543 10.4102C10.9543 10.4103 10.9539 10.4104 10.953 10.4103C10.9525 10.4103 10.9518 10.4103 10.951 10.4102ZM13.4267 15.262V15.2679C13.3466 15.3871 13.2812 15.5419 13.2812 15.6121C13.2812 15.6819 13.2938 15.7766 13.3095 15.8223C13.3249 15.8678 13.4095 15.8419 13.4968 15.7647C13.5846 15.6876 13.685 15.6074 13.72 15.5864C13.7551 15.5653 13.7837 15.479 13.7837 15.3951V15.3443C13.7837 15.3084 13.7393 15.2344 13.7042 15.1761C13.6897 15.1518 13.6767 15.1302 13.6692 15.1152C13.6624 15.1018 13.6522 15.0849 13.6406 15.0658C13.6082 15.0124 13.5656 14.9423 13.5608 14.8861L13.5544 14.8097C13.5054 14.7046 13.4137 14.6185 13.3513 14.6185H13.3379C13.3317 14.6185 13.3256 14.6487 13.3184 14.6848L13.3184 14.6848C13.31 14.7267 13.3 14.7765 13.2863 14.7969L13.261 14.8354C13.3029 14.9616 13.3779 15.1505 13.4267 15.256V15.262ZM12.9802 15.5485L12.9165 15.5613C12.8709 15.5704 12.8906 15.4162 12.9055 15.2998C12.9114 15.2537 12.9165 15.2135 12.9165 15.1918C12.9165 15.1313 12.9724 15.1028 13.0398 15.0684C13.0577 15.0593 13.0764 15.0497 13.0951 15.039L13.1846 14.988C13.1914 15.058 13.1741 15.1984 13.1462 15.3003C13.1181 15.4017 13.0435 15.5134 12.9802 15.5485ZM18.0701 22.3113C17.8809 22.5583 17.6994 22.7855 17.6668 22.8163C17.6346 22.8469 17.5349 22.992 17.4449 23.1397L17.4196 23.1907L17.394 23.2416C17.4641 23.339 17.541 23.4198 17.5649 23.4198C17.5888 23.4198 17.6382 23.4251 17.6749 23.4324L17.7004 23.4198L17.7009 23.4196C17.7263 23.4067 17.7515 23.3939 17.7767 23.3303C17.7846 23.3108 17.7925 23.2961 17.8 23.2822C17.8169 23.2506 17.8318 23.2227 17.8406 23.1522C17.8487 23.0877 17.9231 22.9469 17.9799 22.8391C18.0129 22.7766 18.04 22.7252 18.0448 22.7065L18.0578 22.6553C18.1206 22.4455 18.2184 22.1415 18.2747 21.9803L18.1726 22.1458L18.0701 22.3113ZM3.0137 18.4611C3.0137 13.484 7.0694 9.43482 12.0548 9.43482C17.04 9.43482 21.0959 13.4838 21.0959 18.4608C21.0959 23.4379 17.04 27.4869 12.0548 27.4869C7.0694 27.4869 3.0137 23.4381 3.0137 18.4611ZM17.6194 11.8774C17.3745 11.6708 17.1184 11.4777 16.8516 11.299C16.8356 11.4028 16.8231 11.5521 16.8714 11.6C16.9481 11.6768 17.1778 12.2878 17.1778 12.2878L17.4263 12.496C17.532 12.3246 17.6784 12.0587 17.6085 12.0076C17.5765 11.9846 17.5859 11.9378 17.6194 11.8774ZM15.1139 17.1166L14.9577 17.3317C14.9577 17.3317 14.7791 17.2074 14.83 17.1162C14.8503 17.0802 14.8826 17.0666 14.9093 17.0552C14.9501 17.038 14.9782 17.0261 14.9321 16.9492C14.8554 16.8217 14.6259 16.669 14.6259 16.669H14.4216C14.4216 16.669 14.09 16.4907 14.0135 16.669C13.9956 16.7107 13.9791 16.7555 13.9627 16.7999C13.9089 16.9455 13.8561 17.0885 13.7582 17.1164C13.6308 17.1527 13.1716 17.5099 13.4011 17.4587C13.6308 17.4076 13.7582 17.3057 13.7582 17.3057C14.0521 17.2325 14.1815 17.2762 14.2591 17.3024C14.2624 17.3036 14.2656 17.3047 14.2688 17.3057C14.2896 17.3127 14.3332 17.3215 14.3861 17.3323C14.5273 17.361 14.7349 17.4033 14.7533 17.4587C14.7791 17.5352 15.1139 17.8154 15.1139 17.8154L15.3913 17.9426L15.672 17.7646L15.9015 17.7901H16.3609C16.3609 17.7901 16.6926 17.6986 16.7436 17.604C16.7947 17.5099 16.8712 17.2655 16.8712 17.2655H16.2332L15.8761 16.9494H15.6975L15.7229 17.2551L15.3146 17.1166H15.1139ZM16.3355 16.2482C16.259 16.3382 16.0804 16.4146 16.0804 16.4146L16.2332 16.5901C16.4376 16.5931 16.6161 16.5901 16.6161 16.5901L17.0244 16.5916L17.1776 16.4403C17.1776 16.4403 16.8966 16.3129 16.8712 16.2365C16.8456 16.1599 16.7052 15.9053 16.7052 15.9053L16.565 16.2482C16.565 16.2482 16.4118 16.158 16.3355 16.2482ZM17.1776 18.5678C17.1265 18.4015 16.9989 18.223 16.9989 18.223H16.7436C16.7436 18.223 16.7691 18.7838 16.8712 18.8599C16.9731 18.9363 17.203 19.1654 17.2795 19.2928C17.356 19.4203 17.5857 19.7002 17.5857 19.7002C17.5857 19.7002 17.6366 19.5051 17.5857 19.259C17.5565 19.1179 17.4434 18.9662 17.3425 18.831C17.2675 18.7304 17.1993 18.6389 17.1776 18.5678ZM11.1046 13.5361L11.0997 13.5403C11.0982 13.5416 11.0956 13.5437 11.0926 13.5461C11.089 13.5488 11.087 13.5504 11.0867 13.5505C11.0862 13.5511 11.0857 13.5515 11.0851 13.552C11.0845 13.5525 11.0838 13.5531 11.0831 13.5537C11.0798 13.5564 11.0771 13.5584 11.0747 13.5602C11.0734 13.5611 11.0722 13.562 11.071 13.5629C11.0761 13.5599 10.8924 13.7884 10.6614 14.0732L10.5178 14.1209C10.4566 14.1413 10.4281 14.1698 10.4109 14.187C10.3852 14.2127 10.3851 14.2127 10.3392 14.1209C10.3078 14.0581 10.3022 14.0469 10.2942 14.0449C10.2827 14.0419 10.2664 14.0581 10.1617 13.9679C10.0561 13.8771 10.0848 13.8492 10.1202 13.8148C10.1443 13.7913 10.1716 13.7648 10.1617 13.7133C10.1543 13.6742 10.1369 13.6399 10.1208 13.6082C10.0844 13.5366 10.0548 13.4782 10.1617 13.4076L10.316 13.3057L10.3164 13.3037C10.3712 13.0523 10.4159 12.8471 10.4159 12.7709C10.4159 12.7327 10.4542 12.6117 10.4925 12.4906C10.5308 12.3696 10.5691 12.2485 10.5691 12.2103C10.5691 12.1722 10.5755 12.0958 10.5818 12.0194C10.5882 11.943 10.5945 11.8667 10.5945 11.8285V11.7521C10.5945 11.7238 10.583 11.6436 10.5691 11.5734L10.4927 11.446L10.4162 11.3186C10.3599 11.2126 10.3599 11.0065 10.4162 10.8601L10.6203 10.7072L10.7929 10.5783C10.844 10.4823 10.9291 10.4096 10.9828 10.4153L10.9265 10.4019L10.9107 10.3979C10.8971 10.401 10.833 10.404 10.7686 10.404L10.7226 10.4272C10.6205 10.4783 10.2632 10.6821 10.212 10.7584C10.1613 10.8346 9.95716 11.0894 9.85509 11.1146L9.75302 11.1403C9.67546 11.1265 9.55805 11.0231 9.49135 10.911C9.42487 10.7993 9.3701 10.56 9.3701 10.3798C9.3701 10.3372 9.41464 10.2864 9.49476 10.2298C8.80159 10.4453 8.14528 10.7448 7.53883 11.1177L7.89 11.2932H8.09413L8.88554 11.6757H9.36989L9.5231 11.9555V12.1593V12.4092L9.62517 12.5922L9.5996 12.6943C9.57403 12.796 9.57403 12.8724 9.57403 12.8724L9.62517 13.1017L9.47196 13.4329H9.24246V13.6367L8.93604 13.8656C8.93604 13.8656 8.75769 13.662 8.65562 13.5857C8.55355 13.5093 8.42591 13.4838 8.42591 13.4838L8.50241 13.2544H8.73169L9.01254 12.6943C9.01254 12.6943 8.83376 12.4648 8.75748 12.4137C8.68098 12.3631 8.52777 12.7196 8.52777 12.7196L8.37477 13.1274L8.09392 13.2804L8.14485 13.5095L7.8135 13.5603L7.86421 13.1274C7.86421 13.1274 7.68565 13.2295 7.60915 13.2804C7.53265 13.331 7.27758 13.535 7.17551 13.6369C7.07344 13.7388 6.94581 13.8918 6.94581 13.9679C6.94581 14.0443 6.84374 14.2481 6.84374 14.2481L6.92024 14.554C6.92024 14.554 7.25201 14.8595 7.25201 14.9359C7.25201 15.0122 7.30273 15.3941 7.30273 15.3941L7.45594 15.0886L7.76236 14.7829L7.86443 14.5283V14.3498L7.99207 14.0694C7.99207 14.0694 8.06878 13.8656 8.11971 13.7892C8.17085 13.7131 8.47705 13.9167 8.47705 13.9167L8.75769 14.1462C8.75769 14.1462 8.62984 14.2228 8.60448 14.2992C8.57912 14.3755 8.78305 14.4011 8.78305 14.4011L9.06347 14.1464V14.5034C9.06347 14.5034 9.14061 14.7833 9.21689 14.7323C9.29361 14.6814 9.34453 15.0124 9.34453 15.1397V15.5051L9.42103 15.8278C9.42103 15.8278 9.39567 16.0063 9.34453 16.0827C9.29361 16.1589 9.06368 16.108 9.06368 16.108L8.85976 15.9553C8.85976 15.9553 9.14082 15.5983 9.16618 15.5219C9.19154 15.4456 8.83419 15.6496 8.83419 15.6496C8.83419 15.6496 8.47727 15.7255 8.34963 15.8532L8.47727 16.0063L8.6814 16.2608H8.45191L8.09435 16.4392H7.89021L7.76278 16.5665L7.58422 16.7956L7.37987 16.9487C7.37987 16.9487 7.17594 17.3053 7.1248 17.3819C7.07387 17.4582 7.02294 17.5346 6.92087 17.6876C6.86876 17.7655 6.82998 17.8103 6.7994 17.8456C6.77008 17.8795 6.7483 17.9046 6.72952 17.942C6.69117 18.0184 6.56353 18.2222 6.56353 18.2222C6.56353 18.2222 6.6656 18.3749 6.72952 18.4517C6.79302 18.5278 6.5126 18.7061 6.5126 18.7061L6.28289 18.4262L6.00247 18.0692L5.72162 18.1966H5.46655L5.03292 18.5025C5.03292 18.5025 4.87971 18.8338 4.87971 18.9101C4.87971 18.9865 4.90528 19.1139 5.03292 19.2411C5.16034 19.3686 5.2882 19.4194 5.3647 19.4449C5.44141 19.4703 5.51791 19.4194 5.51791 19.4194C5.51791 19.4194 5.6709 19.2411 5.77297 19.1905C5.87483 19.1392 5.9769 19.2667 5.9769 19.2667L5.87483 19.5724C5.87483 19.5724 6.07918 19.7253 6.15546 19.7759C6.23196 19.8272 6.25753 19.9544 6.25753 19.9544L6.38496 20.235L6.61467 20.3622L6.94645 20.3876L7.12501 20.3367C7.12501 20.3367 7.30337 20.2091 7.40544 20.1582C7.50772 20.1074 7.63536 20.1074 7.63536 20.1074C7.63536 20.1074 7.83949 20.2859 8.06899 20.3114C8.2987 20.3367 8.37541 20.2606 8.37541 20.2606L8.42634 20.3878C8.42634 20.3878 8.63026 20.5663 8.70676 20.6426C8.78347 20.7188 8.8344 20.7443 9.0639 20.8207C9.29382 20.897 9.31939 20.897 9.31939 20.897C9.31939 20.897 9.57446 21.2538 9.65117 21.2793C9.72767 21.3049 9.90623 21.3812 9.90623 21.3812C9.90623 21.3812 10.2632 21.5087 10.3908 21.5593C10.454 21.5847 10.5047 21.6101 10.5491 21.6324C10.5942 21.655 10.6329 21.6744 10.6714 21.6871C10.7479 21.7129 10.9265 21.9035 10.9265 21.9035C10.9265 21.9035 10.7735 22.1966 10.6714 22.3492C10.6326 22.4074 10.6233 22.4213 10.6267 22.426C10.6323 22.4337 10.6714 22.4172 10.6714 22.5279C10.6714 22.6361 10.6808 22.6692 10.6996 22.7353C10.7118 22.7783 10.7279 22.8351 10.7479 22.9354C10.7664 23.0274 10.7715 23.0531 10.7717 23.053C10.7721 23.053 10.7571 22.9722 10.7733 23.0373C10.7991 23.1392 10.7226 23.2158 10.5947 23.2922C10.4671 23.3688 10.5947 23.4449 10.5947 23.4449C10.5947 23.4449 10.3906 23.6232 10.3143 23.6741C10.2374 23.7253 10.1611 23.776 10.1611 23.776C10.1611 23.776 10.1864 23.9287 10.1611 24.0306C10.1353 24.1331 10.1611 24.2093 10.1611 24.2093V24.3876V24.5405L9.98252 24.6933C9.98252 24.6933 9.93116 24.9226 9.85488 25.1009C9.82681 25.166 9.81928 25.1835 9.81852 25.1832C9.81719 25.1827 9.83617 25.1288 9.80374 25.1772C9.75281 25.2536 9.62517 25.3553 9.62517 25.3553V25.5082C9.62517 25.5606 9.62517 25.5771 9.62928 25.5782C9.63715 25.5803 9.66014 25.5257 9.72724 25.5593C9.82931 25.6101 9.72724 25.7378 9.72724 25.7378V25.9158L9.80352 26.0435L9.88002 26.1198C9.95652 26.1962 9.90559 26.349 9.90559 26.349L10.1607 26.8584H10.1089C10.7347 27.0031 11.3859 27.0791 12.0548 27.0791C16.4644 27.0791 20.1121 23.7615 20.6262 19.4926C20.6241 19.4832 20.6228 19.4779 20.6228 19.4779C20.6228 19.4779 20.4185 19.2148 20.3164 19.0744C20.2907 19.0391 20.2585 18.9933 20.2235 18.9436C20.1197 18.7959 19.9912 18.613 19.9339 18.5659C19.8574 18.5034 19.4236 18.1956 19.3471 18.2211C19.2706 18.2464 18.8365 18.2211 18.8365 18.2211C18.8365 18.2211 18.1478 17.9407 17.9693 17.9154C17.7907 17.8901 18.301 18.2211 18.301 18.2211L18.5054 18.3996C18.5054 18.3996 18.7351 18.4251 18.8114 18.4506C18.8879 18.4759 19.0155 18.5659 19.0155 18.5659V18.9601C19.0155 18.9601 18.7093 19.3167 18.4798 19.4781C18.2501 19.6396 17.8416 19.7243 17.7395 19.6985C17.6377 19.673 17.8674 20.0044 17.8674 20.0044C17.8674 20.0044 18.1736 19.8519 18.2501 19.8004C18.3264 19.7496 18.2757 20.1065 18.2501 20.1829C18.2367 20.2234 18.1375 20.3564 18.0395 20.4879C17.9522 20.605 17.8658 20.7209 17.8418 20.769C17.7909 20.8707 17.4591 21.2272 17.3571 21.3291C17.2552 21.431 17.3061 21.6093 17.3061 21.6093C17.3061 21.6093 17.3826 22.2462 17.3571 22.3479C17.3315 22.4502 17.102 22.7557 16.9999 22.8831C16.8979 23.0105 16.7702 23.1382 16.6735 23.2146C16.6172 23.2589 16.5901 23.3718 16.5574 23.5086C16.5337 23.6075 16.5071 23.7188 16.4642 23.8255C16.3622 24.0802 16.2345 24.208 16.0815 24.2589C15.9281 24.3097 15.4691 24.4627 15.4691 24.4627L15.2647 24.0293C15.2647 24.0293 15.214 23.7745 15.126 23.6981C15.0689 23.6487 15.037 23.4813 15.0077 23.3281C14.9918 23.2451 14.9768 23.1663 14.959 23.1127C14.908 22.9595 14.959 22.7051 14.959 22.7051L14.9843 22.5517L15.1058 22.2715V21.7882C15.1058 21.7882 14.9841 21.6863 14.9078 21.6863C14.8397 21.6863 14.691 21.4851 14.6051 21.3687C14.5942 21.354 14.5844 21.3407 14.5758 21.3293C14.5389 21.2801 14.5496 21.1951 14.5619 21.0975C14.575 20.9931 14.59 20.8743 14.5505 20.7692L14.2954 20.6641L13.989 20.5146C13.989 20.5146 13.7846 20.5907 13.7084 20.642C13.6585 20.6752 13.6193 20.665 13.5768 20.6539C13.5543 20.6481 13.5309 20.642 13.5044 20.642H13.1471C13.1471 20.642 13.1473 20.642 13.0706 20.5656C12.9939 20.4892 12.7642 20.5656 12.7642 20.5656L12.6623 20.4382C12.5949 20.3543 12.5608 20.2925 12.5308 20.2381C12.5153 20.2101 12.5009 20.184 12.4835 20.1578C12.4324 20.0814 12.2427 19.6992 12.2427 19.6992C12.2427 19.6992 12.2285 19.3937 12.2427 19.2918C12.2486 19.2499 12.2342 19.2166 12.2216 19.1874C12.2036 19.1458 12.1892 19.1126 12.2427 19.075C12.2897 19.0423 12.3251 18.9653 12.3694 18.8688C12.4109 18.7785 12.4603 18.671 12.5345 18.5666C12.6005 18.4737 12.6381 18.4015 12.6758 18.3291C12.7256 18.2334 12.7757 18.1372 12.8918 17.9924C12.9938 17.8651 12.9938 17.8651 12.9938 17.8555C12.9938 17.846 12.9938 17.8269 13.0957 17.6614C13.1762 17.5311 13.1933 17.5034 13.186 17.4935C13.1748 17.4783 13.1058 17.5055 13.1213 17.2653C13.1469 16.8692 13.022 17.2653 13.022 17.2653L13.0448 16.9738C13.0448 16.9738 12.9937 16.7445 13.0448 16.5901C13.0722 16.5064 13.0999 16.5212 13.1498 16.5478C13.1922 16.5705 13.2506 16.6017 13.3386 16.5886C13.5306 16.5603 13.5805 16.4641 13.5805 16.4641L13.4784 16.2469C13.4784 16.2469 13.4273 16.057 13.4784 15.904C13.5296 15.7511 13.7844 15.904 13.7844 15.904V15.5473C13.7844 15.5473 14.142 15.1907 14.3206 15.0888C14.4991 14.9869 14.78 15.0888 14.78 15.0888H15.1054C15.1054 15.0888 15.494 14.6557 15.5196 14.5793C15.5335 14.5379 15.6077 14.4738 15.693 14.4C15.7647 14.3381 15.8441 14.2694 15.9023 14.2017C16.0297 14.053 15.7237 14.2017 15.7237 14.2017L15.2899 14.0188C15.2899 14.0188 15.4687 13.4584 15.392 13.3821C15.3514 13.3417 15.3109 13.4295 15.2634 13.5325C15.221 13.6244 15.1731 13.7283 15.1145 13.7643C14.9903 13.8405 15.0855 14.1975 15.1051 14.2019C15.1245 14.2062 14.8307 14.8344 14.8307 14.8344L14.4733 14.5797L14.3968 14.6308C14.3201 14.6816 14.1162 14.4268 14.0395 14.3249C13.9632 14.223 14.0906 14.019 14.1927 13.9171C14.2948 13.8154 14.6008 13.4333 14.6266 13.3314C14.6387 13.2827 14.6627 13.2162 14.6901 13.1404C14.7197 13.0585 14.7532 12.9657 14.7798 12.873C14.8123 12.7591 14.9493 12.6866 15.0705 12.6225C15.1388 12.5864 15.202 12.5529 15.2388 12.5162C15.341 12.4143 15.5705 12.4907 15.5705 12.4907C15.5705 12.4907 15.7235 12.6181 15.8514 12.6692C15.9788 12.7203 16.0809 12.8222 16.0809 12.8222C16.0809 12.8222 16.3104 12.873 16.3359 12.9749C16.3615 13.077 16.6728 12.9749 16.6728 12.9749C16.6728 12.9749 16.9735 12.8222 17.1408 12.7458C17.308 12.6694 17.3308 12.6439 17.3308 12.6439C17.3308 12.6439 17.3324 12.6416 17.3353 12.6374C17.3377 12.6338 17.3411 12.6289 17.3453 12.6228C17.2678 12.5235 17.1947 12.4382 17.1408 12.4146C17.0249 12.3637 16.6728 12.0835 16.6728 12.0835C16.6728 12.0835 16.6266 11.931 16.6728 11.8291C16.6911 11.7884 16.6712 11.7313 16.65 11.671C16.6183 11.5804 16.5839 11.4825 16.6728 11.4213C16.7417 11.3734 16.7894 11.3209 16.8209 11.2777C15.8103 10.6076 14.6508 10.1439 13.4036 9.94729C13.3923 9.97367 13.3755 10.013 13.3504 10.0711C13.3136 10.1572 13.3123 10.1603 13.3122 10.1635C13.3122 10.1669 13.3136 10.1703 13.2741 10.277C13.227 10.4031 13.2185 10.4026 13.1895 10.401C13.1712 10.4 13.1447 10.3985 13.0953 10.4281L12.9679 10.5044C13.038 10.5742 13.0552 10.6889 13.0062 10.7591L13.0056 10.76C12.9566 10.8292 12.916 10.8865 12.7635 10.988L12.6103 11.0899C12.6947 11.146 12.7292 11.2492 12.687 11.319L12.5745 11.5992C12.5046 11.7728 12.545 11.7802 12.5711 11.785C12.5871 11.788 12.5978 11.79 12.5745 11.8287C12.5453 11.8768 12.5404 11.9022 12.5326 11.9424C12.5238 11.9873 12.5114 12.0507 12.4575 12.185C12.4223 12.2727 12.4113 12.3001 12.4151 12.3024C12.4225 12.3067 12.4838 12.2201 12.5338 12.2869C12.5893 12.3611 12.5776 12.3813 12.5572 12.4162C12.5496 12.4293 12.5408 12.4444 12.5338 12.4652L12.5082 12.5413C12.3959 12.7096 12.1662 12.9158 11.9979 13L11.7428 13.0766C11.6379 13.1081 11.6193 13.1137 11.6195 13.1182C11.6199 13.1247 11.6587 13.129 11.5385 13.204C11.4365 13.2675 11.4365 13.2675 11.4205 13.2834C11.4046 13.2994 11.3726 13.3312 11.2067 13.4584L11.1466 13.5048L11.1046 13.5361ZM11.0963 13.5433C11.0949 13.5444 11.0937 13.5453 11.0926 13.5461C11.085 13.5523 11.0747 13.5607 11.0712 13.5637C11.0749 13.5609 11.0788 13.5577 11.0829 13.5545C11.0842 13.5534 11.0856 13.5523 11.087 13.5512C11.087 13.5513 11.0869 13.5513 11.0869 13.5514C11.0868 13.5515 11.0866 13.5516 11.0865 13.5516C11.0865 13.5516 11.0868 13.5516 11.0869 13.5514C11.0878 13.5507 11.0899 13.5491 11.0926 13.5469C11.0934 13.5462 11.0943 13.5455 11.0953 13.5447C11.0925 13.5469 11.0898 13.5491 11.087 13.5512C11.0899 13.5487 11.0929 13.5462 11.0958 13.5437C11.096 13.5436 11.0961 13.5435 11.0963 13.5433ZM11.1244 13.5219C11.1127 13.5309 11.1029 13.5383 11.0963 13.5433C11.0992 13.5408 11.102 13.5384 11.1044 13.5363C11.1221 13.5231 11.1268 13.5197 11.1244 13.5219ZM11.1244 13.5219C11.1307 13.5171 11.1375 13.5119 11.1447 13.5063L11.1461 13.5052C11.1395 13.5104 11.1333 13.5154 11.1274 13.52C11.1207 13.5252 11.1145 13.53 11.1089 13.5342C11.1166 13.5282 11.1225 13.5235 11.1244 13.5219ZM3.4501 18.6053C3.4501 18.6053 3.44009 18.5966 3.42347 18.5819C3.42368 18.597 3.42389 18.6121 3.42389 18.6274C3.43838 18.6136 3.4501 18.6053 3.4501 18.6053ZM3.43192 18.8228L3.43007 18.8214C3.58882 22.651 6.26222 25.8435 9.84231 26.7919L9.62538 26.6291L9.29361 26.2473C9.29361 26.2473 9.21711 26.069 9.11504 25.8905C9.07031 25.8125 9.0647 25.8027 9.0576 25.8015C9.04847 25.7999 9.03687 25.8125 8.93626 25.712C8.75769 25.5336 8.93626 25.3808 8.93626 25.3808C8.93626 25.3808 8.85955 25.2279 8.8084 25.1515C8.75769 25.0751 8.8084 24.9226 8.8084 24.9226L8.60448 24.5152C8.60448 24.5152 8.52777 24.1838 8.47684 24.1074C8.44856 24.0649 8.45958 24.0224 8.47058 23.98C8.4794 23.946 8.48821 23.912 8.47684 23.8781C8.45148 23.8017 8.29806 23.6743 8.29806 23.6743C8.29806 23.6743 8.3492 23.5724 8.29806 23.3688C8.24713 23.165 8.14485 23.3688 8.14485 23.3688V23.2669C8.14485 23.2669 8.04278 23.1397 7.96628 23.012C7.88978 22.8846 7.71143 23.012 7.71143 23.012V22.9101L7.43058 22.6553L7.22644 22.4768C7.12448 22.3878 7.12448 22.3878 7.14044 22.4037C7.15639 22.4196 7.1883 22.4514 7.15016 22.426C7.07366 22.3753 6.92066 22.1971 6.92066 22.1971V22.0186V21.8405L6.76745 21.6363L6.79281 21.4836C6.80456 21.4132 6.80551 21.4076 6.8031 21.4047C6.80028 21.4012 6.79281 21.4016 6.79281 21.3053C6.79281 21.1266 6.92066 21.3053 6.92066 21.3053V21.1266L6.71652 20.8722L6.63981 20.7447H6.53774L6.30825 20.5918L6.18061 20.4392C6.12882 20.3774 6.11899 20.3656 6.11712 20.3668C6.11438 20.3685 6.12882 20.398 6.05276 20.3374C5.92512 20.2357 5.89955 20.1589 5.89955 20.1589C5.89955 20.1589 5.72098 20.1333 5.56819 19.9808C5.41456 19.8279 5.3892 19.9808 5.3892 19.9808C5.3892 19.9808 5.26156 19.9044 5.03207 19.7511C4.94754 19.6948 4.92528 19.68 4.92706 19.6761C4.93011 19.6694 5.00389 19.6948 4.95557 19.5983C4.91193 19.5112 4.88494 19.5401 4.85557 19.5715C4.83344 19.5951 4.80996 19.6203 4.777 19.5983C4.75025 19.5805 4.72045 19.5721 4.68538 19.5621C4.61988 19.5435 4.53602 19.5197 4.41944 19.42C4.33015 19.3438 4.33015 19.3438 4.33655 19.3533C4.34294 19.3629 4.35572 19.382 4.29201 19.3439C4.21861 19.2999 4.23818 19.2728 4.26313 19.2382C4.28149 19.2128 4.30276 19.1833 4.29201 19.1401C4.26665 19.0382 4.16459 18.9363 4.16459 18.9363L4.08809 18.8855C4.01138 18.8346 3.87713 18.5287 3.87713 18.5287C3.87713 18.5287 3.78167 18.2483 3.70517 18.2483C3.62867 18.2483 3.6796 18.3757 3.6796 18.3757L3.73053 18.5798C3.75211 18.6655 3.75555 18.6792 3.75987 18.6795C3.76582 18.6798 3.77343 18.6548 3.83259 18.7582C3.86883 18.8213 3.87945 18.8397 3.8769 18.8418C3.87225 18.8455 3.82363 18.7943 3.80724 18.8601C3.78188 18.9622 3.80724 19.0131 3.80724 19.0131C3.80724 19.0131 3.80724 19.0133 3.62867 18.9367C3.54486 18.9008 3.53972 18.8986 3.53941 18.8958C3.53905 18.8927 3.54486 18.8889 3.4501 18.8348C3.44301 18.8308 3.43746 18.8268 3.43192 18.8228Z" fill="#FF7B29"/>
</svg>
