<svg width="32" height="32" viewBox="0 0 32 32" fill="none" xmlns="http://www.w3.org/2000/svg">
<path d="M20.496 17.3665C20.496 17.4388 20.618 17.497 20.7671 17.497C20.9159 17.497 21.1428 17.5814 21.271 17.6839C21.3996 17.7863 21.5721 17.7863 21.6542 17.6839C21.7366 17.5817 21.7026 17.497 21.5796 17.497C21.4567 17.497 21.2841 17.4388 21.1964 17.3665C21.1091 17.2952 20.9159 17.2363 20.7671 17.2363C20.6176 17.2363 20.496 17.2955 20.496 17.3665Z" fill="#FF7B29"/>
<path d="M19.5437 17.106C19.6364 17.1773 19.7288 17.2866 19.7494 17.3479C19.7494 17.3479 19.7494 17.3479 19.936 17.2365C20.1232 17.1247 20.1232 17.1247 20.1232 17.1247C20.3285 17.0356 20.6649 16.8179 20.8705 16.6401C20.8705 16.6401 20.8705 16.6401 20.497 16.6401C20.2726 16.6401 20.2726 16.6401 20.2726 16.6401C19.9644 16.6401 19.6367 16.6401 19.5441 16.6401C19.4517 16.6401 19.3762 16.7151 19.3762 16.8073C19.3759 16.8998 19.4514 17.034 19.5437 17.106Z" fill="#FF7B29"/>
<path d="M11.2299 23.1374C11.2299 23.1287 11.2299 23.1287 11.2299 23.1287C11.3472 22.9543 11.443 22.7276 11.443 22.6248C11.443 22.5226 11.4246 22.3841 11.4015 22.3171C11.379 22.2505 11.2552 22.2884 11.1272 22.4015C10.9987 22.5142 10.8517 22.6316 10.8006 22.6625C10.7491 22.6933 10.7073 22.8197 10.7073 22.9424C10.7073 22.9424 10.7073 22.9424 10.7073 23.0169C10.7073 23.0913 10.8377 23.2775 10.8748 23.3523C10.9126 23.4267 11.024 23.5759 11.0336 23.6877C11.043 23.7995 11.043 23.7995 11.043 23.7995C11.1148 23.9533 11.2489 24.0795 11.3404 24.0795C11.3404 24.0795 11.3404 24.0795 11.36 24.0795C11.3797 24.0795 11.3981 23.8739 11.4355 23.8182C11.4727 23.7618 11.4727 23.7618 11.4727 23.7618C11.4112 23.5771 11.3014 23.3006 11.2299 23.1461C11.2299 23.1464 11.2299 23.1464 11.2299 23.1374Z" fill="#FF7B29"/>
<path d="M11.9775 22.6994C11.8842 22.7181 11.8842 22.7181 11.8842 22.7181C11.7915 22.7695 11.6823 22.933 11.6412 23.0815C11.6003 23.2307 11.575 23.4363 11.585 23.5387C11.585 23.5387 11.585 23.5387 11.716 23.464C11.8465 23.3895 11.9775 23.3525 11.9775 23.2404C11.9775 23.1286 12.0708 22.6807 11.9775 22.6994Z" fill="#FF7B29"/>
<path d="M4.43182 12.8178C4.70889 12.4563 4.97474 12.1237 5.02248 12.0785C5.0696 12.0337 5.21563 11.8213 5.3473 11.6051C5.3473 11.6051 5.3473 11.6051 5.38443 11.5304C5.42187 11.456 5.42188 11.456 5.42188 11.456C5.31922 11.3133 5.20658 11.195 5.17163 11.195C5.13668 11.195 5.06429 11.1872 5.01062 11.1766C5.01062 11.1766 5.01062 11.1766 4.97318 11.195C4.93574 11.214 4.89861 11.2324 4.86148 11.3261C4.82372 11.4189 4.78659 11.4379 4.76787 11.5868C4.74915 11.7359 4.48798 12.1648 4.46895 12.2392C4.44991 12.3143 4.44991 12.3143 4.44991 12.3143C4.35787 12.6213 4.21465 13.0663 4.13227 13.3024C4.13227 13.3024 4.13227 13.3024 4.28173 13.0601C4.43182 12.8178 4.43182 12.8178 4.43182 12.8178Z" fill="#FF7B29"/>
<path fill-rule="evenodd" clip-rule="evenodd" d="M13.2389 5.13106C5.92728 5.13106 0 11.0469 0 18.3445C0 25.6421 5.92728 31.5579 13.2389 31.5579C20.5506 31.5579 26.4779 25.6421 26.4779 18.3445C26.4779 18.3033 26.4777 18.2621 26.4773 18.2209C26.4661 16.9929 26.2869 15.8048 25.9617 14.6785C25.8873 14.4208 25.6151 14.2791 25.358 14.3554C25.0895 14.4351 24.9412 14.7209 25.0181 14.9902C25.2567 15.8266 25.4083 16.6995 25.4626 17.5986C25.3159 17.5358 25.3159 17.536 25.3159 17.536C25.3159 17.536 25.353 17.6105 25.3159 17.76C25.2919 17.8564 25.2207 17.7814 25.2139 17.7869C25.2102 17.7898 25.2257 17.8169 25.2788 17.9091C25.3654 18.0606 25.3766 18.0239 25.3853 18.0245C25.3916 18.0249 25.3966 18.0449 25.4282 18.1704L25.4849 18.3972C25.4845 18.4831 25.4833 18.5687 25.4811 18.6542C25.4763 18.6551 25.4711 18.6556 25.4654 18.6556C25.3534 18.6556 25.2136 18.2452 25.2136 18.2452C25.2136 18.2452 25.017 17.7973 24.9047 17.7229L24.7926 17.6485C24.7926 17.6485 24.6432 17.4993 24.6061 17.3501C24.5903 17.2869 24.6215 17.2437 24.6483 17.2065C24.6849 17.1559 24.7135 17.1162 24.6061 17.0518C24.5128 16.996 24.5315 17.024 24.5408 17.038C24.5502 17.0519 24.5502 17.0519 24.4195 16.9403C24.2488 16.7944 24.126 16.7596 24.03 16.7323C23.9787 16.7178 23.9351 16.7054 23.8959 16.6793C23.8476 16.6472 23.8132 16.684 23.7808 16.7186C23.7378 16.7646 23.6983 16.8068 23.6344 16.6793C23.5636 16.5381 23.6717 16.5753 23.6762 16.5655C23.6788 16.5598 23.6462 16.5381 23.5224 16.4557C23.1863 16.2312 22.9994 16.1194 22.9994 16.1194C22.9994 16.1194 22.9623 16.3433 22.7373 16.1194C22.5136 15.8961 22.2521 15.8587 22.2521 15.8587C22.2521 15.8587 22.2147 15.7463 22.0278 15.5974C21.9164 15.5087 21.9376 15.5519 21.9335 15.5543C21.9308 15.556 21.9164 15.5388 21.8407 15.4484L21.8406 15.4482L21.6537 15.225L21.3176 15.001H21.1682L21.0558 14.8145L20.7569 14.442V14.1804C20.7569 14.1804 20.9441 14.442 20.9441 14.1804C20.9441 14.0394 20.9332 14.04 20.929 14.035C20.9255 14.0307 20.9269 14.0224 20.9441 13.9195L20.9813 13.6959L20.7569 13.3969V12.8749C20.7569 12.8749 20.5329 12.614 20.4209 12.5399C20.365 12.5026 20.4117 12.5492 20.4351 12.5725C20.4585 12.5958 20.4585 12.5958 20.3091 12.4654L20.0102 12.2041L19.599 11.831V11.6819C19.599 11.6819 19.3378 11.8684 19.2258 11.6819C19.1138 11.495 18.9643 11.3088 18.9643 11.3088V11.1596C18.9643 11.1596 18.8145 11.458 18.74 11.1596C18.6651 10.8616 18.74 10.7124 18.74 10.7124C18.74 10.7124 18.5153 10.5259 18.4782 10.4141C18.4615 10.3644 18.4744 10.3146 18.4873 10.2649C18.5035 10.2028 18.5196 10.1406 18.4782 10.0784C18.4036 9.96655 18.2913 9.48135 18.2913 9.48135L17.9927 8.88497C17.9927 8.88497 18.0669 8.66168 17.9927 8.54988C17.9178 8.43808 17.8055 8.21416 17.8055 8.21416C17.8055 8.21416 18.0669 7.99056 17.8055 7.72927C17.6581 7.58224 17.6411 7.60069 17.6278 7.59837C17.6174 7.59658 17.6092 7.58225 17.5437 7.4681L17.5437 7.46799C17.3942 7.2067 17.2822 6.94573 17.2822 6.94573L17.1072 6.74435C17.9867 7.03638 18.8219 7.42526 19.6001 7.89833C19.831 8.03867 20.1337 7.98146 20.2876 7.7594C20.4457 7.53117 20.3863 7.21675 20.1495 7.07181C18.1379 5.84078 15.7715 5.13106 13.2389 5.13106ZM11.4148 30.4322C9.63652 30.1672 7.98318 29.5205 6.54109 28.5784C6.58341 28.4933 6.54567 28.3857 6.51014 28.2843C6.47918 28.196 6.44991 28.1125 6.47672 28.0529C6.54443 27.9037 6.47672 27.6804 6.47672 27.6804C6.47672 27.6804 5.96126 27.2702 5.79152 27.1958C5.71257 27.1612 5.60555 27.0364 5.49197 26.8909C5.50538 26.8716 5.51319 26.8601 5.51319 26.8601C5.51319 26.8601 5.54657 26.8227 5.79152 26.7109C6.03646 26.5991 6.47672 26.3755 6.47672 26.3755C6.47672 26.3755 6.93259 26.226 6.97004 26.3755C7.00748 26.5247 7.34353 26.5991 7.34353 26.5991C7.34353 26.5991 7.49299 26.7483 7.67958 26.823C7.8668 26.8978 8.09083 27.0843 8.09083 27.0843C8.09083 27.0843 8.42689 27.1961 8.57666 27.047C8.6305 26.9932 8.72308 26.9443 8.82299 26.8914C9.00046 26.7976 9.20105 26.6915 9.24876 26.5247C9.28769 26.389 9.33674 26.2532 9.38008 26.1332C9.42011 26.0223 9.45528 25.9249 9.47311 25.8536C9.51086 25.7044 9.95893 25.1451 10.1084 24.9962C10.2579 24.847 10.4444 24.5484 10.3327 24.3992C10.2204 24.25 9.9218 23.877 9.80947 23.9514L9.69746 24.0261L9.17419 23.6534C9.17419 23.6534 8.74391 24.573 8.7723 24.5792C8.80101 24.5858 8.94048 25.1083 8.75857 25.2198C8.67282 25.2725 8.6026 25.4247 8.54056 25.5592C8.47098 25.71 8.41169 25.8386 8.35231 25.7795C8.23998 25.6677 8.50177 24.8474 8.50177 24.8474L7.86649 24.5795C7.86649 24.5795 7.41842 24.7972 7.60501 24.5795C7.69018 24.4804 7.80656 24.3799 7.91148 24.2892C8.0364 24.1813 8.14506 24.0874 8.16541 24.0268C8.20285 23.915 8.77199 23.2809 8.77199 23.2809H9.24845C9.24845 23.2809 9.6597 23.4301 9.92118 23.2809C10.1827 23.1317 10.7062 22.6098 10.7062 22.6098V22.0875C10.7062 22.0875 11.0794 22.3114 11.1543 22.0875C11.2292 21.8636 11.1543 21.5855 11.1543 21.5855L11.0048 21.2675C11.0048 21.2675 11.0779 21.1268 11.359 21.0853C11.4879 21.0662 11.5735 21.1119 11.6356 21.145C11.7087 21.184 11.7491 21.2056 11.7893 21.0832C11.8642 20.8571 11.7893 20.5214 11.7893 20.5214L11.8227 20.0947C11.8227 20.0947 11.6398 20.6746 11.6773 20.0947C11.7 19.7431 11.5989 19.7829 11.5825 19.7606C11.5719 19.7461 11.5969 19.7056 11.7147 19.5148C11.864 19.2725 11.864 19.2446 11.864 19.2306C11.864 19.2166 11.864 19.2166 12.0133 19.0303C12.1833 18.8182 12.2567 18.6774 12.3295 18.5374C12.3848 18.4313 12.4398 18.3256 12.5366 18.1897C12.6452 18.0369 12.7175 17.8795 12.7783 17.7472C12.8432 17.606 12.8949 17.4933 12.9637 17.4454C13.0421 17.3903 13.0211 17.3417 12.9947 17.2808C12.9762 17.2382 12.9551 17.1894 12.9637 17.1281C12.9846 16.9789 12.9637 16.5317 12.9637 16.5317C12.9637 16.5317 12.686 15.9721 12.6112 15.8603C12.5858 15.822 12.5647 15.7838 12.542 15.7427C12.4981 15.6631 12.4481 15.5726 12.3494 15.4498L12.2002 15.2633C12.2002 15.2633 11.8639 15.3751 11.7515 15.2633C11.6392 15.1515 11.6395 15.1515 11.6395 15.1515H11.1162C11.0775 15.1515 11.0432 15.1425 11.0103 15.1339C10.9481 15.1178 10.8906 15.1028 10.8176 15.1515C10.7059 15.2265 10.4067 15.338 10.4067 15.338L9.958 15.1191L9.5845 14.9652C9.52662 14.8114 9.54855 14.6374 9.56781 14.4846C9.58582 14.3417 9.60151 14.2173 9.54737 14.1452C9.53484 14.1286 9.52044 14.1091 9.50458 14.0876C9.37866 13.9172 9.161 13.6227 9.06123 13.6227C8.94953 13.6227 8.77136 13.4735 8.77136 13.4735V12.7659L8.94922 12.3558L8.98635 12.1313C8.98635 12.1313 9.06092 11.7588 8.98635 11.5346C8.96026 11.456 8.93822 11.3407 8.91501 11.2192C8.87215 10.9949 8.82532 10.7499 8.74172 10.6775C8.61285 10.5657 8.53859 10.1926 8.53859 10.1926L8.23936 9.55827C8.23936 9.55827 7.56725 9.78219 7.34259 9.85662C7.11856 9.93105 6.93166 10.1182 6.7822 10.491C6.71948 10.6473 6.68044 10.8102 6.64576 10.955C6.5978 11.1551 6.55818 11.3205 6.47579 11.3854C6.33413 11.4972 6.14722 11.6841 5.99776 11.8706C5.8483 12.0571 5.51225 12.5043 5.47481 12.6541C5.43736 12.803 5.54938 13.7354 5.54938 13.7354C5.54938 13.7354 5.62395 13.9964 5.47481 14.1456C5.32535 14.2947 4.83952 14.8167 4.76495 14.9655C4.72981 15.036 4.60329 15.2056 4.47543 15.3771C4.33193 15.5695 4.18674 15.7642 4.16711 15.8235C4.12966 15.9353 4.0554 16.4579 4.16711 16.3835C4.27912 16.3081 4.72751 16.0848 4.72751 16.0848C4.72751 16.0848 5.06387 16.57 4.91472 16.5326C4.76526 16.4949 4.16711 16.6189 3.83074 16.8553C3.49469 17.0916 3.04631 17.6136 3.04631 17.6136V18.1907C3.04631 18.1907 3.23321 18.3224 3.34523 18.3594C3.45694 18.3968 3.7933 18.4342 3.7933 18.4342L4.09253 18.6955C4.09253 18.6955 4.83984 19.1801 4.57836 19.143C4.31688 19.1059 3.30841 18.6955 3.30841 18.6955C3.30841 18.6955 2.67281 18.6584 2.5608 18.6955C2.44878 18.7328 1.8135 18.2822 1.70148 18.1907C1.61768 18.1217 1.42946 17.8541 1.27738 17.6378L1.27723 17.6376C1.22607 17.5648 1.17901 17.4979 1.14139 17.4464C1.1113 17.405 1.07515 17.3563 1.03659 17.305C1.56515 11.0413 6.82647 6.12207 13.2389 6.12207C14.2716 6.12207 15.2743 6.24963 16.2323 6.48982L16.386 6.79687C16.386 6.79687 16.3115 7.02047 16.4235 7.13227L16.5355 7.24408L16.6472 7.43093V7.69159C16.6472 7.69159 16.4977 7.87845 16.6472 7.95288C16.7455 8.00201 16.7791 7.92209 16.7907 7.92515C16.7967 7.92675 16.7967 7.9509 16.7967 8.02762V8.25153C16.7967 8.25153 16.6098 8.4004 16.5352 8.5122C16.4877 8.58309 16.5155 8.50421 16.5136 8.50347C16.5124 8.50305 16.5014 8.52863 16.4603 8.624C16.3486 8.88497 16.2734 9.22069 16.2734 9.22069L16.0119 9.44429V9.92918C16.0119 9.92918 16.0497 10.0407 16.0119 10.1908C15.9748 10.3399 16.0119 10.5635 16.0119 10.5635C16.0119 10.5635 15.9002 10.6377 15.7876 10.7127C15.6759 10.7872 15.377 11.0481 15.377 11.0481C15.377 11.0481 15.5639 11.1596 15.377 11.2717C15.1897 11.3835 15.0777 11.4956 15.1155 11.6448C15.1392 11.7402 15.1172 11.622 15.1177 11.6219C15.1181 11.6218 15.1255 11.659 15.1523 11.7924L15.1526 11.794C15.182 11.9409 15.2056 12.0241 15.2234 12.087C15.2509 12.1838 15.2646 12.2323 15.2646 12.3907C15.2646 12.5527 15.3219 12.5285 15.3301 12.5398C15.3351 12.5467 15.3215 12.567 15.2646 12.6523C15.1152 12.8756 14.8911 13.3047 14.8911 13.3047C14.8911 13.3047 15.1526 13.5837 15.2646 13.6214C15.3211 13.6401 15.3776 13.6685 15.4437 13.7016C15.5088 13.7342 15.583 13.7714 15.6756 13.8086C15.8625 13.8827 16.3851 14.0693 16.3851 14.0693C16.3851 14.0693 16.6466 14.1811 16.7586 14.2184C16.8709 14.2558 17.2444 14.7781 17.2444 14.7781C17.2444 14.7781 17.2819 14.7781 17.6185 14.8899C17.9546 15.0017 18.0292 15.039 18.1415 15.1505C18.2535 15.2623 18.5521 15.5236 18.5521 15.5236L18.6267 15.7098C18.6267 15.7098 18.739 15.5984 19.0754 15.6354C19.4114 15.6728 19.7104 15.9341 19.7104 15.9341C19.7104 15.9341 19.8973 15.9341 20.047 15.8596C20.1965 15.7852 20.4577 15.5984 20.4577 15.5984L20.7191 15.5239L21.205 15.561L21.5413 15.7472L21.7279 16.158C21.7279 16.158 21.7654 16.3442 21.8774 16.4193C21.9891 16.4934 22.2883 16.7173 22.2883 16.7173L22.1389 17.1648C22.1389 17.1648 22.2883 17.3514 22.4375 17.2763C22.5869 17.2022 22.811 16.9412 22.811 16.9412C22.811 16.9412 22.923 16.8668 23.0353 16.9038C23.1473 16.9412 23.3346 17.0156 23.5211 17.2022C23.708 17.3884 23.7455 17.575 23.7455 17.6868C23.7455 17.7986 23.5211 18.2835 23.5211 18.2835L22.8862 18.7313H22.5127L22.1014 18.9178L21.6908 18.3953L21.3544 17.9854C21.3544 17.9854 20.9438 18.2464 21.0368 18.3579C21.1304 18.4703 21.2799 18.6939 21.2799 18.6939C21.2799 18.6939 21.093 18.9923 21.0368 19.1041C21.0093 19.1588 20.9774 19.1956 20.9345 19.2452C20.8897 19.2968 20.8329 19.3624 20.7566 19.4765C20.6071 19.7004 20.5326 19.8122 20.458 19.924C20.3831 20.0362 20.0845 20.5581 20.0845 20.5581L19.7853 20.7823L19.5238 21.1177L19.3372 21.304H19.0383L18.5147 21.5653H18.1786L18.4776 21.9377L18.6645 22.1619C18.4776 22.3488 17.9549 22.46 17.9549 22.46C17.9549 22.46 17.4316 22.7586 17.4688 22.6468C17.5059 22.535 17.9175 22.0125 17.9175 22.0125L17.6189 21.7889C17.6189 21.7889 17.2822 21.7144 17.2076 21.8259C17.1327 21.9377 17.0956 22.199 17.0956 22.199L17.2076 22.6714V23.2065C17.2076 23.3927 17.2822 23.8773 17.3945 23.8028C17.5062 23.7281 17.6192 24.1379 17.6192 24.1379V24.6605L18.0298 24.2877C18.0298 24.2877 18.3284 24.3251 18.2913 24.4369C18.2541 24.5487 18.0669 24.6608 18.0669 24.6608L18.4779 24.9968C18.4779 24.9968 18.9262 25.2949 19.0011 25.1834C19.0757 25.0716 19.188 24.7732 19.188 24.7732L19.3749 24.3628V24.1015L19.5244 23.7287L19.9731 23.2812L20.1974 22.834C20.1974 22.834 20.2717 23.393 20.2717 23.5048C20.2717 23.6166 20.7575 24.0638 20.7575 24.0638L20.8695 24.5116C20.8695 24.5116 20.7201 24.81 20.7201 24.9218C20.7201 25.0333 20.5332 25.2572 20.3837 25.4064C20.2343 25.5555 19.8608 25.8542 19.7487 25.9283C19.6367 26.0027 19.3753 26.1522 19.3753 26.1522L19.4495 25.5185L18.9643 25.5929L19.0389 25.9283L18.6276 26.1522L18.4036 26.7492C18.4036 26.7492 18.1793 27.2712 18.0672 27.1971C17.9555 27.1223 17.6937 26.7863 17.6937 26.7863L18.105 25.9663H18.4407L18.5528 25.6306C18.5528 25.6306 18.3658 25.5932 18.2164 25.4814C18.0669 25.3696 17.8058 25.0716 17.8058 25.0716L17.3571 25.4067V25.705H17.021L16.7967 26.1899L16.8716 26.5256C16.8716 26.5256 16.8716 26.6374 16.8341 26.7863L16.7967 26.9358L16.9461 27.2036V27.8679L17.1705 28.2774H17.8797L19.0386 28.8373H19.3375L19.438 28.8875C18.7195 29.3093 17.9541 29.6599 17.1515 29.9298C17.1222 29.7233 17.0617 29.513 16.9926 29.397C16.895 29.2328 16.723 29.0815 16.6095 29.0612L16.46 29.0989C16.3105 29.1357 16.0116 29.5088 15.9374 29.6203C15.8625 29.7321 15.3392 30.0304 15.1897 30.1051L15.1223 30.1391C15.0281 30.1391 14.9342 30.1434 14.9142 30.1481L14.8911 30.1422L14.8088 30.1226C14.8874 30.131 15.0119 30.0245 15.0868 29.884L15.3395 29.6953L15.6384 29.4714C15.7208 29.2571 15.7208 28.9554 15.6384 28.8003L15.4144 28.4272C15.3941 28.3244 15.3773 28.207 15.3773 28.1656V28.0538C15.3773 27.9979 15.3865 27.8861 15.3958 27.7743L15.3958 27.774C15.3964 27.767 15.397 27.76 15.3976 27.7531C15.4062 27.6486 15.4144 27.5471 15.4144 27.4948C15.4144 27.4389 15.4705 27.2617 15.5266 27.0845C15.5827 26.9073 15.6387 26.7301 15.6387 26.6742C15.6387 26.5627 15.7042 26.2622 15.7845 25.8941L15.7851 25.8913L16.011 25.7421C16.1676 25.6387 16.1242 25.5533 16.071 25.4484C16.0474 25.402 16.0219 25.3518 16.011 25.2946C15.9966 25.2191 16.0365 25.1803 16.0718 25.146C16.1237 25.0956 16.1656 25.0548 16.011 24.9218C15.8577 24.7897 15.8338 24.8134 15.817 24.8092C15.8053 24.8062 15.797 24.7897 15.7511 24.6979C15.6838 24.5635 15.6838 24.5635 15.6461 24.6011C15.621 24.6262 15.5792 24.668 15.4896 24.6979L15.2793 24.7676C14.9411 25.1846 14.6721 25.5191 14.6796 25.5147C14.6743 25.5185 14.6693 25.5222 14.6618 25.5281C14.6608 25.5291 14.6598 25.5299 14.6589 25.5307C14.658 25.5314 14.6572 25.5321 14.6565 25.5328L14.6479 25.5393L14.6375 25.5478L14.6303 25.554L14.5695 25.5992L14.5688 25.5998L14.4808 25.6677C14.2379 25.8539 14.1911 25.9005 14.1677 25.9238C14.1443 25.9472 14.1443 25.9472 13.995 26.0401C13.8189 26.1499 13.8758 26.1562 13.8763 26.1657C13.8767 26.1724 13.8495 26.1805 13.6959 26.2266L13.6958 26.2267L13.3223 26.3388C13.0758 26.4621 12.7394 26.7639 12.575 27.0102L12.5375 27.1217C12.5273 27.1521 12.5144 27.1743 12.5033 27.1934C12.4734 27.2445 12.4562 27.2741 12.5375 27.3827C12.5934 27.4573 12.6588 27.4013 12.6915 27.3733C12.7243 27.3453 12.7243 27.3453 12.6492 27.5318C12.5703 27.7285 12.5522 27.8213 12.5394 27.8871C12.5279 27.9459 12.5206 27.9831 12.4779 28.0535C12.4438 28.1102 12.4594 28.1131 12.4829 28.1174C12.5212 28.1244 12.5802 28.1353 12.4779 28.3895L12.3132 28.7997C12.2514 28.9018 12.3019 29.0528 12.4255 29.1351L12.2012 29.2842C11.9778 29.4327 11.9184 29.5167 11.8467 29.6179L11.8458 29.6193C11.774 29.7221 11.7993 29.8899 11.9019 29.9921L11.7153 30.1039C11.6429 30.1471 11.6042 30.145 11.5774 30.1435C11.5349 30.1412 11.5224 30.1405 11.4535 30.325C11.4353 30.3741 11.4231 30.4083 11.4148 30.4322ZM5.3734 27.0765C5.29392 27.2054 5.19871 27.3708 5.13876 27.5113C5.45311 27.7883 5.78181 28.0493 6.12361 28.2933C5.98193 28.0321 5.73722 27.3814 5.73722 27.3814L5.3734 27.0765ZM8.75951 20.3124L8.98822 19.9975C8.98822 19.9975 9.2497 20.1794 9.17513 20.313C9.14543 20.3656 9.09823 20.3856 9.05903 20.4022C8.99937 20.4275 8.95825 20.4449 9.02566 20.5575C9.13799 20.744 9.47404 20.9676 9.47404 20.9676H9.77328C9.77328 20.9676 10.2588 21.2286 10.3708 20.9676C10.397 20.9065 10.4212 20.8411 10.4453 20.7759C10.5239 20.5629 10.6012 20.3535 10.7446 20.3127C10.9312 20.2594 11.6036 19.7366 11.2676 19.8116C10.9312 19.8864 10.7446 20.0355 10.7446 20.0355C10.3143 20.1427 10.1248 20.0787 10.0112 20.0403C10.0063 20.0387 10.0016 20.0371 9.997 20.0355C9.96649 20.0254 9.90271 20.0124 9.8253 19.9966L9.82518 19.9966C9.6184 19.9546 9.31446 19.8927 9.28745 19.8116C9.2497 19.6995 8.75951 19.2894 8.75951 19.2894L8.35325 19.1031L7.94231 19.3638L7.60626 19.3264H6.93353C6.93353 19.3264 6.44771 19.4603 6.37313 19.5989C6.29824 19.7366 6.18623 20.0944 6.18623 20.0944H7.12043L7.64339 20.5572H7.90487L7.86774 20.1097L8.46558 20.3124H8.75951ZM6.97066 21.5836C7.08268 21.4519 7.34416 21.3401 7.34416 21.3401L7.12043 21.0832C6.8212 21.0788 6.55972 21.0832 6.55972 21.0832L5.96188 21.081L5.73753 21.3024C5.73753 21.3024 6.1491 21.489 6.18623 21.6008C6.22367 21.7129 6.4293 22.0856 6.4293 22.0856L6.63461 21.5836C6.63461 21.5836 6.85896 21.7157 6.97066 21.5836ZM5.73753 18.1879C5.81242 18.4314 5.99932 18.6927 5.99932 18.6927H6.37313C6.37313 18.6927 6.33569 17.8718 6.18623 17.7603C6.03708 17.6485 5.7004 17.3131 5.58839 17.1265C5.47637 16.94 5.14 16.5301 5.14 16.5301C5.14 16.5301 5.06543 16.8157 5.14 17.176C5.18275 17.3826 5.34844 17.6047 5.49606 17.8026C5.60596 17.9499 5.70584 18.0838 5.73753 18.1879Z" fill="#FF7B29"/>
<path d="M30.163 7.4858C30.6506 6.64276 30.7809 5.63985 30.5252 4.69767C30.2695 3.7555 29.6487 2.95125 28.7994 2.46185C27.9501 1.97245 26.9419 1.83799 25.9965 2.08805C25.0511 2.33811 24.246 2.9522 23.7584 3.79523C22.3851 6.16917 23.2832 11.9978 23.2832 11.9978C23.2832 11.9978 28.7897 9.85973 30.163 7.4858ZM25.2094 4.6822C25.7577 3.73433 26.9756 3.41218 27.9311 3.96282C28.3897 4.22704 28.7249 4.66126 28.8629 5.16994C29.001 5.67862 28.9306 6.22009 28.6673 6.67524C28.404 7.1304 27.9694 7.46195 27.459 7.59695C26.9486 7.73196 26.4042 7.65936 25.9457 7.39513C25.487 7.13086 25.1518 6.69656 25.0137 6.18779C24.8756 5.67902 24.946 5.13744 25.2094 4.6822Z" fill="#FF7B29"/>
</svg>
